<mxfile host="65bd71144e">
    <diagram id="hn7tHWQoiM4ZmX-ZspI4" name="Page-1">
        <mxGraphModel dx="1594" dy="1171" grid="0" gridSize="10" guides="1" tooltips="1" connect="1" arrows="1" fold="1" page="0" pageScale="1" pageWidth="827" pageHeight="1169" math="0" shadow="0">
            <root>
                <mxCell id="0"/>
                <mxCell id="1" parent="0"/>
                <mxCell id="9" value="" style="edgeStyle=none;html=1;" parent="1" source="3" target="8" edge="1">
                    <mxGeometry relative="1" as="geometry"/>
                </mxCell>
                <mxCell id="68" value="Yes" style="edgeLabel;html=1;align=center;verticalAlign=middle;resizable=0;points=[];" vertex="1" connectable="0" parent="9">
                    <mxGeometry x="-0.126" y="1" relative="1" as="geometry">
                        <mxPoint as="offset"/>
                    </mxGeometry>
                </mxCell>
                <mxCell id="12" value="" style="edgeStyle=none;html=1;" parent="1" source="3" target="11" edge="1">
                    <mxGeometry relative="1" as="geometry"/>
                </mxCell>
                <mxCell id="69" value="No" style="edgeLabel;html=1;align=center;verticalAlign=middle;resizable=0;points=[];" vertex="1" connectable="0" parent="12">
                    <mxGeometry x="-0.1429" y="2" relative="1" as="geometry">
                        <mxPoint as="offset"/>
                    </mxGeometry>
                </mxCell>
                <mxCell id="3" value="SignIn?" style="shape=rhombus;html=1;dashed=0;whitespace=wrap;perimeter=rhombusPerimeter;" parent="1" vertex="1">
                    <mxGeometry y="168" width="105.6" height="88" as="geometry"/>
                </mxCell>
                <mxCell id="31" value="" style="edgeStyle=none;html=1;" edge="1" parent="1" source="8" target="30">
                    <mxGeometry relative="1" as="geometry"/>
                </mxCell>
                <mxCell id="32" value="Yes" style="edgeLabel;html=1;align=center;verticalAlign=middle;resizable=0;points=[];" vertex="1" connectable="0" parent="31">
                    <mxGeometry x="-0.1502" y="3" relative="1" as="geometry">
                        <mxPoint x="6" y="3" as="offset"/>
                    </mxGeometry>
                </mxCell>
                <mxCell id="96" value="" style="edgeStyle=none;html=1;" edge="1" parent="1" source="8" target="95">
                    <mxGeometry relative="1" as="geometry"/>
                </mxCell>
                <mxCell id="8" value="Remembers&lt;br&gt;Code?" style="shape=rhombus;html=1;dashed=0;whitespace=wrap;perimeter=rhombusPerimeter;" parent="1" vertex="1">
                    <mxGeometry x="158" y="168" width="105.6" height="88" as="geometry"/>
                </mxCell>
                <mxCell id="11" value="" style="ellipse;html=1;shape=endState;fillColor=#000000;strokeColor=#ff0000;" parent="1" vertex="1">
                    <mxGeometry x="37.8" y="305" width="30" height="30" as="geometry"/>
                </mxCell>
                <mxCell id="35" value="Yes" style="edgeStyle=none;html=1;" edge="1" parent="1" source="30" target="34">
                    <mxGeometry relative="1" as="geometry"/>
                </mxCell>
                <mxCell id="41" value="" style="edgeStyle=none;html=1;" edge="1" parent="1" source="30" target="40">
                    <mxGeometry relative="1" as="geometry"/>
                </mxCell>
                <mxCell id="42" value="No" style="edgeLabel;html=1;align=center;verticalAlign=middle;resizable=0;points=[];" vertex="1" connectable="0" parent="41">
                    <mxGeometry x="-0.1405" relative="1" as="geometry">
                        <mxPoint as="offset"/>
                    </mxGeometry>
                </mxCell>
                <mxCell id="30" value="Registered&lt;br&gt;Address?" style="shape=rhombus;html=1;dashed=0;whitespace=wrap;perimeter=rhombusPerimeter;" vertex="1" parent="1">
                    <mxGeometry x="347.7" y="168" width="105.6" height="88" as="geometry"/>
                </mxCell>
                <mxCell id="38" value="" style="edgeStyle=none;html=1;" edge="1" parent="1" source="34" target="37">
                    <mxGeometry relative="1" as="geometry"/>
                </mxCell>
                <mxCell id="39" value="Yes" style="edgeLabel;html=1;align=center;verticalAlign=middle;resizable=0;points=[];" vertex="1" connectable="0" parent="38">
                    <mxGeometry x="-0.1433" relative="1" as="geometry">
                        <mxPoint as="offset"/>
                    </mxGeometry>
                </mxCell>
                <mxCell id="34" value="Registered&lt;br&gt;Equipment?" style="shape=rhombus;html=1;dashed=0;whitespace=wrap;perimeter=rhombusPerimeter;" vertex="1" parent="1">
                    <mxGeometry x="523" y="168" width="105.6" height="88" as="geometry"/>
                </mxCell>
                <mxCell id="47" value="" style="edgeStyle=none;html=1;" edge="1" parent="1" source="37" target="46">
                    <mxGeometry relative="1" as="geometry"/>
                </mxCell>
                <mxCell id="37" value="Refresh&lt;br&gt;Tokens" style="whiteSpace=wrap;html=1;align=center;" vertex="1" parent="1">
                    <mxGeometry x="706" y="183" width="145" height="58" as="geometry"/>
                </mxCell>
                <mxCell id="40" value="Registered&lt;br&gt;Equipment?" style="shape=rhombus;html=1;dashed=0;whitespace=wrap;perimeter=rhombusPerimeter;" vertex="1" parent="1">
                    <mxGeometry x="347.7" y="325" width="105.6" height="88" as="geometry"/>
                </mxCell>
                <mxCell id="43" value="" style="edgeStyle=none;html=1;" edge="1" parent="1" target="45">
                    <mxGeometry relative="1" as="geometry">
                        <mxPoint x="453.2999999999999" y="368.9999999999998" as="sourcePoint"/>
                    </mxGeometry>
                </mxCell>
                <mxCell id="44" value="Yes" style="edgeLabel;html=1;align=center;verticalAlign=middle;resizable=0;points=[];" vertex="1" connectable="0" parent="43">
                    <mxGeometry x="-0.1433" relative="1" as="geometry">
                        <mxPoint as="offset"/>
                    </mxGeometry>
                </mxCell>
                <mxCell id="49" value="" style="edgeStyle=none;html=1;" edge="1" parent="1" source="45" target="48">
                    <mxGeometry relative="1" as="geometry"/>
                </mxCell>
                <mxCell id="45" value="Refresh&lt;br&gt;Tokens" style="whiteSpace=wrap;html=1;align=center;" vertex="1" parent="1">
                    <mxGeometry x="530.7" y="340" width="145" height="58" as="geometry"/>
                </mxCell>
                <mxCell id="61" style="edgeStyle=none;html=1;entryX=1;entryY=0.5;entryDx=0;entryDy=0;" edge="1" parent="1" source="46" target="55">
                    <mxGeometry relative="1" as="geometry">
                        <Array as="points">
                            <mxPoint x="979" y="511"/>
                        </Array>
                    </mxGeometry>
                </mxCell>
                <mxCell id="46" value="Define&lt;br&gt;'Owner'&lt;br&gt;Permissions" style="whiteSpace=wrap;html=1;align=center;" vertex="1" parent="1">
                    <mxGeometry x="906" y="183" width="145" height="58" as="geometry"/>
                </mxCell>
                <mxCell id="60" style="edgeStyle=none;html=1;entryX=0.5;entryY=0;entryDx=0;entryDy=0;" edge="1" parent="1" source="48" target="55">
                    <mxGeometry relative="1" as="geometry"/>
                </mxCell>
                <mxCell id="48" value="Define&lt;br&gt;'Temporary Owner'&lt;br&gt;Permissions" style="whiteSpace=wrap;html=1;align=center;" vertex="1" parent="1">
                    <mxGeometry x="761" y="340" width="145" height="58" as="geometry"/>
                </mxCell>
                <mxCell id="50" value="" style="edgeStyle=none;html=1;exitX=0.5;exitY=1;exitDx=0;exitDy=0;entryX=0.5;entryY=0;entryDx=0;entryDy=0;" edge="1" parent="1" target="54">
                    <mxGeometry relative="1" as="geometry">
                        <mxPoint x="401.5999999999998" y="413" as="sourcePoint"/>
                        <mxPoint x="400.8467391304348" y="476" as="targetPoint"/>
                        <Array as="points"/>
                    </mxGeometry>
                </mxCell>
                <mxCell id="51" value="No" style="edgeLabel;html=1;align=center;verticalAlign=middle;resizable=0;points=[];" vertex="1" connectable="0" parent="50">
                    <mxGeometry x="-0.1433" relative="1" as="geometry">
                        <mxPoint as="offset"/>
                    </mxGeometry>
                </mxCell>
                <mxCell id="59" style="edgeStyle=none;html=1;entryX=0;entryY=0.5;entryDx=0;entryDy=0;" edge="1" parent="1" source="54" target="55">
                    <mxGeometry relative="1" as="geometry"/>
                </mxCell>
                <mxCell id="54" value="Define&lt;br&gt;'Unknown'&lt;br&gt;Permissions" style="whiteSpace=wrap;html=1;align=center;" vertex="1" parent="1">
                    <mxGeometry x="328.00000000000006" y="482" width="145" height="58" as="geometry"/>
                </mxCell>
                <mxCell id="66" style="edgeStyle=none;html=1;" edge="1" parent="1" source="55" target="65">
                    <mxGeometry relative="1" as="geometry"/>
                </mxCell>
                <mxCell id="55" value="Define&lt;br&gt;&quot;Subscriber&quot; | &quot;Publisher&quot;&lt;br&gt;Permissions" style="whiteSpace=wrap;html=1;align=center;" vertex="1" parent="1">
                    <mxGeometry x="761" y="482" width="145" height="58" as="geometry"/>
                </mxCell>
                <mxCell id="63" value="Yes" style="edgeStyle=none;html=1;entryX=0.5;entryY=0;entryDx=0;entryDy=0;" edge="1" parent="1" source="62" target="3">
                    <mxGeometry relative="1" as="geometry"/>
                </mxCell>
                <mxCell id="73" value="" style="edgeStyle=none;html=1;entryX=1;entryY=0.5;entryDx=0;entryDy=0;" edge="1" parent="1" source="62" target="77">
                    <mxGeometry relative="1" as="geometry">
                        <mxPoint x="-118" y="59" as="targetPoint"/>
                    </mxGeometry>
                </mxCell>
                <mxCell id="74" value="No" style="edgeLabel;html=1;align=center;verticalAlign=middle;resizable=0;points=[];" vertex="1" connectable="0" parent="73">
                    <mxGeometry x="-0.0956" relative="1" as="geometry">
                        <mxPoint as="offset"/>
                    </mxGeometry>
                </mxCell>
                <mxCell id="62" value="Has&lt;br&gt;Account?" style="shape=rhombus;html=1;dashed=0;whitespace=wrap;perimeter=rhombusPerimeter;" vertex="1" parent="1">
                    <mxGeometry y="15" width="105.6" height="88" as="geometry"/>
                </mxCell>
                <mxCell id="67" style="edgeStyle=none;html=1;" edge="1" parent="1" source="64" target="62">
                    <mxGeometry relative="1" as="geometry"/>
                </mxCell>
                <mxCell id="64" value="LandingPage" style="whiteSpace=wrap;html=1;align=center;" vertex="1" parent="1">
                    <mxGeometry x="-19.69999999999999" y="-102" width="145" height="58" as="geometry"/>
                </mxCell>
                <mxCell id="65" value="HomePage" style="whiteSpace=wrap;html=1;align=center;" vertex="1" parent="1">
                    <mxGeometry x="761" y="597" width="145" height="58" as="geometry"/>
                </mxCell>
                <mxCell id="82" value="" style="edgeStyle=none;html=1;" edge="1" parent="1" source="77" target="81">
                    <mxGeometry relative="1" as="geometry"/>
                </mxCell>
                <mxCell id="77" value="SignUp?" style="shape=rhombus;html=1;dashed=0;whitespace=wrap;perimeter=rhombusPerimeter;" vertex="1" parent="1">
                    <mxGeometry x="-229" y="15" width="105.6" height="88" as="geometry"/>
                </mxCell>
                <mxCell id="78" value="" style="edgeStyle=none;html=1;" edge="1" parent="1" target="80">
                    <mxGeometry relative="1" as="geometry">
                        <mxPoint x="-176.20000000000005" y="103" as="sourcePoint"/>
                    </mxGeometry>
                </mxCell>
                <mxCell id="79" value="No" style="edgeLabel;html=1;align=center;verticalAlign=middle;resizable=0;points=[];" vertex="1" connectable="0" parent="78">
                    <mxGeometry x="-0.1429" y="2" relative="1" as="geometry">
                        <mxPoint as="offset"/>
                    </mxGeometry>
                </mxCell>
                <mxCell id="80" value="" style="ellipse;html=1;shape=endState;fillColor=#000000;strokeColor=#ff0000;" vertex="1" parent="1">
                    <mxGeometry x="-191.2" y="152" width="30" height="30" as="geometry"/>
                </mxCell>
                <mxCell id="84" value="" style="edgeStyle=none;html=1;exitX=0.5;exitY=0;exitDx=0;exitDy=0;" edge="1" parent="1" source="81" target="83">
                    <mxGeometry relative="1" as="geometry">
                        <mxPoint x="-6.400000000000034" y="-223.00000000000023" as="sourcePoint"/>
                    </mxGeometry>
                </mxCell>
                <mxCell id="81" value="Requires&lt;br&gt;Email and PhoneNumber" style="whiteSpace=wrap;html=1;align=center;" vertex="1" parent="1">
                    <mxGeometry x="-248.7" y="-112" width="145" height="58" as="geometry"/>
                </mxCell>
                <mxCell id="83" value="Receives&lt;br&gt;AccessCode&lt;br&gt;Email" style="whiteSpace=wrap;html=1;align=center;" vertex="1" parent="1">
                    <mxGeometry x="-248.7" y="-252" width="145" height="58" as="geometry"/>
                </mxCell>
                <mxCell id="85" value="" style="edgeStyle=none;html=1;exitX=0.5;exitY=0;exitDx=0;exitDy=0;" edge="1" parent="1" target="90" source="95">
                    <mxGeometry relative="1" as="geometry">
                        <mxPoint x="211.49999999999994" y="70" as="sourcePoint"/>
                    </mxGeometry>
                </mxCell>
                <mxCell id="86" value="Yes" style="edgeLabel;html=1;align=center;verticalAlign=middle;resizable=0;points=[];" vertex="1" connectable="0" parent="85">
                    <mxGeometry x="-0.0933" relative="1" as="geometry">
                        <mxPoint as="offset"/>
                    </mxGeometry>
                </mxCell>
                <mxCell id="87" value="" style="edgeStyle=none;html=1;" edge="1" parent="1" source="90" target="91">
                    <mxGeometry relative="1" as="geometry"/>
                </mxCell>
                <mxCell id="88" value="No" style="edgeLabel;html=1;align=center;verticalAlign=middle;resizable=0;points=[];" vertex="1" connectable="0" parent="87">
                    <mxGeometry x="-0.0973" relative="1" as="geometry">
                        <mxPoint as="offset"/>
                    </mxGeometry>
                </mxCell>
                <mxCell id="89" value="Yes" style="edgeStyle=none;html=1;" edge="1" parent="1" source="90" target="93">
                    <mxGeometry relative="1" as="geometry"/>
                </mxCell>
                <mxCell id="90" value="Remembers&lt;br&gt;Email?" style="shape=rhombus;html=1;dashed=0;whitespace=wrap;perimeter=rhombusPerimeter;" vertex="1" parent="1">
                    <mxGeometry x="158.7" y="-83" width="105.6" height="88" as="geometry"/>
                </mxCell>
                <mxCell id="91" value="Contact &lt;br&gt;Support" style="whiteSpace=wrap;html=1;align=center;" vertex="1" parent="1">
                    <mxGeometry x="328.7" y="-68" width="145" height="58" as="geometry"/>
                </mxCell>
                <mxCell id="92" value="" style="edgeStyle=none;html=1;" edge="1" parent="1" source="93" target="94">
                    <mxGeometry relative="1" as="geometry"/>
                </mxCell>
                <mxCell id="93" value="Send Email&lt;br&gt;Recover AccessCode" style="whiteSpace=wrap;html=1;align=center;" vertex="1" parent="1">
                    <mxGeometry x="139" y="-200" width="145" height="58" as="geometry"/>
                </mxCell>
                <mxCell id="94" value="Define&lt;br&gt;AccessCode" style="whiteSpace=wrap;html=1;align=center;" vertex="1" parent="1">
                    <mxGeometry x="349.7" y="-200" width="145" height="58" as="geometry"/>
                </mxCell>
                <mxCell id="95" value="Recovers&lt;br&gt;Code?" style="shape=rhombus;html=1;dashed=0;whitespace=wrap;perimeter=rhombusPerimeter;" vertex="1" parent="1">
                    <mxGeometry x="158" y="52" width="105.6" height="88" as="geometry"/>
                </mxCell>
                <mxCell id="98" value="" style="edgeStyle=none;html=1;exitX=1;exitY=0.5;exitDx=0;exitDy=0;entryX=0;entryY=0.5;entryDx=0;entryDy=0;" edge="1" parent="1" target="100" source="95">
                    <mxGeometry relative="1" as="geometry">
                        <mxPoint x="296.0000000000001" y="51.999999999999886" as="sourcePoint"/>
                    </mxGeometry>
                </mxCell>
                <mxCell id="99" value="No" style="edgeLabel;html=1;align=center;verticalAlign=middle;resizable=0;points=[];" vertex="1" connectable="0" parent="98">
                    <mxGeometry x="-0.1429" y="2" relative="1" as="geometry">
                        <mxPoint as="offset"/>
                    </mxGeometry>
                </mxCell>
                <mxCell id="100" value="" style="ellipse;html=1;shape=endState;fillColor=#000000;strokeColor=#ff0000;" vertex="1" parent="1">
                    <mxGeometry x="328.7" y="81" width="30" height="30" as="geometry"/>
                </mxCell>
            </root>
        </mxGraphModel>
    </diagram>
</mxfile>